<svg xmlns="http://www.w3.org/2000/svg" viewBox="0 0 400 520" width="400" height="520">
  <defs>
    <linearGradient id="bottle" x1="0" y1="0" x2="1" y2="0">
      <stop offset="0%" stop-color="#5C3A1E"/>
      <stop offset="30%" stop-color="#8B5E3C"/>
      <stop offset="50%" stop-color="#A0714D"/>
      <stop offset="70%" stop-color="#8B5E3C"/>
      <stop offset="100%" stop-color="#5C3A1E"/>
    </linearGradient>
    <linearGradient id="cap" x1="0" y1="0" x2="1" y2="0">
      <stop offset="0%" stop-color="#1a1a1a"/>
      <stop offset="50%" stop-color="#333"/>
      <stop offset="100%" stop-color="#1a1a1a"/>
    </linearGradient>
    <linearGradient id="highlight" x1="0.3" y1="0" x2="0.7" y2="0">
      <stop offset="0%" stop-color="white" stop-opacity="0"/>
      <stop offset="50%" stop-color="white" stop-opacity="0.15"/>
      <stop offset="100%" stop-color="white" stop-opacity="0"/>
    </linearGradient>
    <filter id="shadow" x="-10%" y="-5%" width="120%" height="115%">
      <feDropShadow dx="3" dy="6" stdDeviation="8" flood-color="#00000020"/>
    </filter>
  </defs>
  
  <!-- Background -->
  <rect width="400" height="520" fill="#FBFAF8" rx="12"/>
  
  <!-- Bottle body -->
  <g filter="url(#shadow)">
    <!-- Cap -->
    <rect x="165" y="62" width="70" height="30" rx="4" fill="url(#cap)"/>
    <rect x="170" y="55" width="60" height="12" rx="3" fill="url(#cap)"/>
    
    <!-- Neck -->
    <path d="M175 92 L175 120 Q175 130 160 140 L160 140" fill="url(#bottle)" stroke="none"/>
    <path d="M225 92 L225 120 Q225 130 240 140 L240 140" fill="url(#bottle)" stroke="none"/>
    <rect x="175" y="88" width="50" height="40" fill="url(#bottle)"/>
    
    <!-- Shoulder -->
    <path d="M160 140 Q130 155 125 175 L125 175 L275 175 Q270 155 240 140 Z" fill="url(#bottle)"/>
    
    <!-- Main body -->
    <rect x="125" y="170" width="150" height="250" rx="6" fill="url(#bottle)"/>
    
    <!-- Bottom -->
    <path d="M125 415 Q125 435 145 440 L255 440 Q275 435 275 415 Z" fill="url(#bottle)"/>
    
    <!-- Glass highlight -->
    <rect x="125" y="170" width="150" height="250" rx="6" fill="url(#highlight)"/>
    
    <!-- ═══ LABEL ═══ -->
    <rect x="135" y="200" width="130" height="170" rx="4" fill="white" stroke="#E0DDD8" stroke-width="0.5"/>
    
    <!-- Brand bar -->
    <rect x="135" y="200" width="130" height="28" rx="4" fill="#C4845F"/>
    <rect x="135" y="220" width="130" height="8" fill="#C4845F"/>
    <text x="200" y="218" text-anchor="middle" fill="white" font-family="Arial,sans-serif" font-size="10" font-weight="bold" letter-spacing="1.5">LANCHROM</text>
    
    <!-- Product name -->
    <text x="200" y="248" text-anchor="middle" fill="#2B2A28" font-family="Arial,sans-serif" font-size="10" font-weight="bold">DMSO</text>
    
    <!-- Grade -->
    <text x="200" y="268" text-anchor="middle" fill="#5C5A55" font-family="Arial,sans-serif" font-size="8">USP / Cell Culture</text>
    
    <!-- Divider -->
    <line x1="150" y1="280" x2="250" y2="280" stroke="#E6E3DD" stroke-width="0.5"/>
    
    <!-- CAS -->
    <text x="200" y="296" text-anchor="middle" fill="#8A8782" font-family="Arial,sans-serif" font-size="7">CAS: 67-68-5</text>
    
    <!-- Volume -->
    <text x="200" y="315" text-anchor="middle" fill="#3C6E71" font-family="Arial,sans-serif" font-size="11" font-weight="bold">1 L</text>
    
    <!-- Hazard diamond (small) -->
    <g transform="translate(155, 330)">
      <rect x="0" y="0" width="14" height="14" rx="1" fill="#FF4444" transform="rotate(45 7 7)"/>
      <text x="7" y="11" text-anchor="middle" fill="white" font-family="Arial,sans-serif" font-size="7" font-weight="bold">3</text>
    </g>
    
    <!-- GHS pictogram placeholder -->
    <rect x="185" y="335" width="30" height="30" rx="2" fill="none" stroke="#E6E3DD" stroke-width="0.5" transform="rotate(45 200 350)"/>
  </g>
</svg>